<mxfile host="app.diagrams.net" agent="Mozilla/5.0 (Macintosh; Intel Mac OS X 10_15_7) AppleWebKit/537.36 (KHTML, like Gecko) Chrome/128.0.0.0 Safari/537.36 OPR/114.0.0.0" version="25.0.3">
  <diagram name="Page-1" id="dWppc0DBcRfkqi8W9arh">
    <mxGraphModel dx="1372" dy="1535" grid="0" gridSize="10" guides="1" tooltips="1" connect="1" arrows="1" fold="1" page="0" pageScale="1" pageWidth="1169" pageHeight="827" math="0" shadow="0">
      <root>
        <mxCell id="0" />
        <mxCell id="1" parent="0" />
        <mxCell id="O8ZP3SS7C7TFBK9OFGbs-39" style="edgeStyle=none;curved=1;rounded=0;orthogonalLoop=1;jettySize=auto;html=1;entryX=0.5;entryY=0;entryDx=0;entryDy=0;fontSize=12;startSize=8;endSize=8;" edge="1" parent="1" source="O8ZP3SS7C7TFBK9OFGbs-10" target="O8ZP3SS7C7TFBK9OFGbs-35">
          <mxGeometry relative="1" as="geometry" />
        </mxCell>
        <mxCell id="O8ZP3SS7C7TFBK9OFGbs-10" value="route" style="rounded=1;whiteSpace=wrap;html=1;" vertex="1" parent="1">
          <mxGeometry x="-404" y="-560" width="120" height="60" as="geometry" />
        </mxCell>
        <mxCell id="O8ZP3SS7C7TFBK9OFGbs-11" value="matchers" style="rounded=1;whiteSpace=wrap;html=1;" vertex="1" parent="1">
          <mxGeometry x="-524" y="-363" width="120" height="60" as="geometry" />
        </mxCell>
        <mxCell id="O8ZP3SS7C7TFBK9OFGbs-42" style="edgeStyle=none;curved=1;rounded=0;orthogonalLoop=1;jettySize=auto;html=1;entryX=0.5;entryY=0;entryDx=0;entryDy=0;fontSize=12;startSize=8;endSize=8;" edge="1" parent="1" source="O8ZP3SS7C7TFBK9OFGbs-13" target="O8ZP3SS7C7TFBK9OFGbs-36">
          <mxGeometry relative="1" as="geometry" />
        </mxCell>
        <mxCell id="O8ZP3SS7C7TFBK9OFGbs-13" value="matchers" style="rounded=1;whiteSpace=wrap;html=1;" vertex="1" parent="1">
          <mxGeometry x="-284" y="-363" width="120" height="60" as="geometry" />
        </mxCell>
        <mxCell id="O8ZP3SS7C7TFBK9OFGbs-40" style="edgeStyle=none;curved=1;rounded=0;orthogonalLoop=1;jettySize=auto;html=1;entryX=0.5;entryY=0;entryDx=0;entryDy=0;fontSize=12;startSize=8;endSize=8;" edge="1" parent="1" source="O8ZP3SS7C7TFBK9OFGbs-35" target="O8ZP3SS7C7TFBK9OFGbs-13">
          <mxGeometry relative="1" as="geometry" />
        </mxCell>
        <mxCell id="O8ZP3SS7C7TFBK9OFGbs-41" style="edgeStyle=none;curved=1;rounded=0;orthogonalLoop=1;jettySize=auto;html=1;entryX=0.5;entryY=0;entryDx=0;entryDy=0;fontSize=12;startSize=8;endSize=8;" edge="1" parent="1" source="O8ZP3SS7C7TFBK9OFGbs-35" target="O8ZP3SS7C7TFBK9OFGbs-11">
          <mxGeometry relative="1" as="geometry" />
        </mxCell>
        <mxCell id="O8ZP3SS7C7TFBK9OFGbs-35" value="routes" style="rounded=1;whiteSpace=wrap;html=1;" vertex="1" parent="1">
          <mxGeometry x="-404" y="-460" width="120" height="60" as="geometry" />
        </mxCell>
        <mxCell id="O8ZP3SS7C7TFBK9OFGbs-43" style="edgeStyle=none;curved=1;rounded=0;orthogonalLoop=1;jettySize=auto;html=1;entryX=0.5;entryY=0;entryDx=0;entryDy=0;fontSize=12;startSize=8;endSize=8;" edge="1" parent="1" source="O8ZP3SS7C7TFBK9OFGbs-36" target="O8ZP3SS7C7TFBK9OFGbs-37">
          <mxGeometry relative="1" as="geometry" />
        </mxCell>
        <mxCell id="O8ZP3SS7C7TFBK9OFGbs-44" style="edgeStyle=none;curved=1;rounded=0;orthogonalLoop=1;jettySize=auto;html=1;entryX=0.5;entryY=0;entryDx=0;entryDy=0;fontSize=12;startSize=8;endSize=8;" edge="1" parent="1" source="O8ZP3SS7C7TFBK9OFGbs-36" target="O8ZP3SS7C7TFBK9OFGbs-38">
          <mxGeometry relative="1" as="geometry" />
        </mxCell>
        <mxCell id="O8ZP3SS7C7TFBK9OFGbs-36" value="routes" style="rounded=1;whiteSpace=wrap;html=1;" vertex="1" parent="1">
          <mxGeometry x="-284" y="-250" width="120" height="60" as="geometry" />
        </mxCell>
        <mxCell id="O8ZP3SS7C7TFBK9OFGbs-37" value="matchers" style="rounded=1;whiteSpace=wrap;html=1;" vertex="1" parent="1">
          <mxGeometry x="-404" y="-140" width="120" height="60" as="geometry" />
        </mxCell>
        <mxCell id="O8ZP3SS7C7TFBK9OFGbs-46" style="edgeStyle=none;curved=1;rounded=0;orthogonalLoop=1;jettySize=auto;html=1;entryX=0.5;entryY=0;entryDx=0;entryDy=0;fontSize=12;startSize=8;endSize=8;" edge="1" parent="1" source="O8ZP3SS7C7TFBK9OFGbs-38" target="O8ZP3SS7C7TFBK9OFGbs-45">
          <mxGeometry relative="1" as="geometry" />
        </mxCell>
        <mxCell id="O8ZP3SS7C7TFBK9OFGbs-38" value="matchers" style="rounded=1;whiteSpace=wrap;html=1;" vertex="1" parent="1">
          <mxGeometry x="-164" y="-140" width="120" height="60" as="geometry" />
        </mxCell>
        <mxCell id="O8ZP3SS7C7TFBK9OFGbs-48" style="edgeStyle=none;curved=1;rounded=0;orthogonalLoop=1;jettySize=auto;html=1;entryX=0.5;entryY=0;entryDx=0;entryDy=0;fontSize=12;startSize=8;endSize=8;" edge="1" parent="1" source="O8ZP3SS7C7TFBK9OFGbs-45" target="O8ZP3SS7C7TFBK9OFGbs-47">
          <mxGeometry relative="1" as="geometry" />
        </mxCell>
        <mxCell id="O8ZP3SS7C7TFBK9OFGbs-45" value="routes" style="rounded=1;whiteSpace=wrap;html=1;" vertex="1" parent="1">
          <mxGeometry x="-44" y="-40" width="120" height="60" as="geometry" />
        </mxCell>
        <mxCell id="O8ZP3SS7C7TFBK9OFGbs-47" value="matchers" style="rounded=1;whiteSpace=wrap;html=1;" vertex="1" parent="1">
          <mxGeometry x="76" y="60" width="120" height="60" as="geometry" />
        </mxCell>
      </root>
    </mxGraphModel>
  </diagram>
</mxfile>
